<?xml version="1.0" encoding="UTF-8"?>
<svg id="Layer_2" data-name="Layer 2" xmlns="http://www.w3.org/2000/svg" viewBox="0 0 29.3 29.29">
  <defs>
    <style>
      .cls-1 {
        fill: #000;
        stroke-width: 0px;
      }

      .cls-2 {
        fill: none;
        stroke: #000;
        stroke-miterlimit: 10;
        stroke-width: .69px;
      }
    </style>
  </defs>
  <g id="Layer_1-2" data-name="Layer 1">
    <g>
      <g>
        <path class="cls-1" d="M23.23,12.94c-.22.23-.43.46-.65.69-.18.18-.36.36-.54.55-.24.24-.3.25-.61.12,0,.24,0,.47,0,.7,0,.63,0,1.25,0,1.88,0,.25-.17.41-.38.38-.18-.03-.29-.17-.29-.37,0-.73,0-1.45,0-2.18,0-.27,0-.54,0-.8,0-.11-.03-.18-.12-.25-1.85-1.44-3.69-2.87-5.53-4.31-.15-.11-.29-.23-.45-.35-.31.24-.62.49-.93.73-1.68,1.31-3.36,2.62-5.04,3.93-.08.06-.12.12-.12.23,0,2.84,0,5.68,0,8.52,0,.04,0,.09,0,.14h.94c0-.06,0-.11,0-.17,0-.95,0-1.9,0-2.85,0-.05,0-.1,0-.15.02-.17.16-.3.33-.3.17,0,.32.13.34.31,0,.06,0,.12,0,.18,0,.93,0,1.86,0,2.8,0,.06,0,.12,0,.19h10.59v-.18c0-.92,0-1.84,0-2.76,0-.04,0-.09,0-.13,0-.22.14-.36.33-.37.2,0,.33.15.34.37,0,.11,0,.21,0,.32,0,.91,0,1.82,0,2.75h.16c.4,0,.79,0,1.19,0,.21,0,.36.06.46.24v.2c-.1.18-.25.24-.46.24-5.41,0-10.83,0-16.24,0-.05,0-.1,0-.15,0-.17-.02-.3-.16-.3-.33,0-.17.13-.32.31-.34.07,0,.14,0,.22,0,.42,0,.85,0,1.27,0v-8.26c-.18.12-.35.14-.5-.01-.4-.39-.79-.79-1.18-1.18-.17-.17-.15-.37.03-.52.03-.03.06-.05.09-.07,1.97-1.54,3.95-3.08,5.92-4.62.77-.6,1.54-1.2,2.31-1.79.07,0,.13,0,.2,0,.06.04.12.08.17.13.87.68,1.74,1.36,2.61,2.04.3.24.6.47.93.73,0-.44,0-.83,0-1.23,0-.3.12-.41.42-.42.59,0,1.18,0,1.77,0,.31,0,.42.12.42.43,0,1.03,0,2.05,0,3.08,0,.14.05.22.15.3.58.44,1.16.89,1.73,1.35.1.08.18.18.27.27v.2ZM7.66,13.58s.08-.06.13-.09c2.19-1.71,4.37-3.41,6.56-5.12.25-.2.36-.2.6,0,2.19,1.71,4.37,3.41,6.56,5.12.05.04.1.07.12.09.25-.25.48-.48.73-.73-2.56-2-5.13-4-7.7-6.01-2.58,2.01-5.15,4.02-7.72,6.02.25.25.48.48.73.73ZM20.4,10.47v-2.48h-1.26c0,.49,0,.96,0,1.44,0,.03.03.07.05.09.39.31.79.62,1.2.94Z"/>
        <path class="cls-1" d="M18.2,16.94c0,1.03,0,2.06,0,3.1,0,.32-.11.44-.43.44-2.08,0-4.16,0-6.24,0-.31,0-.43-.11-.43-.42,0-2.09,0-4.17,0-6.26,0-.3.12-.42.41-.42,2.09,0,4.18,0,6.28,0,.29,0,.41.12.41.42,0,1.05,0,2.1,0,3.15ZM14.3,16.58v-2.52h-2.53v2.52h2.53ZM17.52,14.05h-2.53v2.52h2.53v-2.52ZM14.3,19.79v-2.52h-2.53v2.52h2.53ZM14.99,19.79h2.53v-2.52h-2.53v2.52Z"/>
        <path class="cls-1" d="M10.16,18.07c0,.19-.15.34-.34.34-.18,0-.33-.15-.33-.33,0-.19.15-.34.34-.34.18,0,.33.15.33.33Z"/>
        <path class="cls-1" d="M21.08,17.93c.18,0,.34.16.33.34,0,.18-.16.32-.34.32-.18,0-.34-.16-.33-.34,0-.18.16-.32.34-.32Z"/>
      </g>
      <ellipse class="cls-2" cx="14.65" cy="14.65" rx="14.31" ry="14.3"/>
    </g>
  </g>
</svg>